<svg xmlns="http://www.w3.org/2000/svg" viewBox="0 0 36 48">
  <rect class="c-fixed" x="8" y="2" width="10" height="2" fill="#0A0A0F"/>
  <rect class="c-fixed" x="6" y="4" width="14" height="2" fill="#0A0A0F"/>
  <rect class="c-fixed" x="6" y="6" width="16" height="2" fill="#0A0A0F"/>
  <rect class="c-fixed" x="6" y="8" width="2" height="8" fill="#0A0A0F"/>
  <rect class="c-fixed" x="20" y="8" width="2" height="8" fill="#0A0A0F"/>
  <rect class="c-fixed" x="8" y="14" width="12" height="2" fill="#0A0A0F"/>
  <rect class="c-primary" x="8" y="4" width="10" height="8" fill="var(--c-primary, #1a3a8a)"/>
  <rect class="c-fixed" x="10" y="10" width="6" height="4" fill="#FDBCB4"/>
  <rect class="c-fixed" x="20" y="12" width="8" height="2" fill="#0A0A0F"/>
  <rect class="c-fixed" x="28" y="10" width="6" height="2" fill="#0A0A0F"/>
  <rect class="c-fixed" x="20" y="10" width="8" height="2" fill="#6B3A1F"/>
  <rect class="c-fixed" x="28" y="8" width="6" height="2" fill="#6B3A1F"/>
  <rect class="c-fixed" x="8" y="16" width="10" height="2" fill="#0A0A0F"/>
  <rect class="c-fixed" x="10" y="18" width="10" height="2" fill="#0A0A0F"/>
  <rect class="c-fixed" x="12" y="20" width="10" height="2" fill="#0A0A0F"/>
  <rect class="c-primary" x="8" y="16" width="10" height="8" fill="var(--c-primary, #1a3a8a)"/>
  <rect class="c-secondary" x="12" y="18" width="4" height="6" fill="var(--c-secondary, #ffffff)"/>
  <rect class="c-fixed" x="18" y="18" width="4" height="2" fill="#FDBCB4"/>
  <rect class="c-fixed" x="12" y="24" width="4" height="2" fill="#0A0A0F"/>
  <rect class="c-fixed" x="18" y="24" width="4" height="2" fill="#0A0A0F"/>
  <rect class="c-fixed" x="10" y="26" width="2" height="10" fill="#0A0A0F"/>
  <rect class="c-fixed" x="18" y="26" width="2" height="10" fill="#0A0A0F"/>
  <rect class="c-secondary" x="12" y="24" width="4" height="10" fill="var(--c-secondary, #ffffff)"/>
  <rect class="c-secondary" x="20" y="24" width="2" height="10" fill="var(--c-secondary, #ffffff)"/>
  <rect class="c-fixed" x="12" y="34" width="4" height="2" fill="#0A0A0F"/>
  <rect class="c-fixed" x="20" y="34" width="4" height="2" fill="#0A0A0F"/>
  <rect class="c-fixed" x="10" y="36" width="6" height="4" fill="#1A1A1A"/>
  <rect class="c-fixed" x="18" y="36" width="6" height="4" fill="#1A1A1A"/>
</svg>
