<svg xmlns="http://www.w3.org/2000/svg" viewBox="0 0 24 28">
  <rect class="c-fixed" x="6" y="0" width="10" height="2" fill="#0A0A0F"/>
  <rect class="c-fixed" x="4" y="2" width="14" height="2" fill="#0A0A0F"/>
  <rect class="c-fixed" x="2" y="4" width="18" height="2" fill="#0A0A0F"/>
  <rect class="c-fixed" x="2" y="6" width="2" height="8" fill="#0A0A0F"/>
  <rect class="c-fixed" x="18" y="6" width="2" height="8" fill="#0A0A0F"/>
  <rect class="c-fixed" x="4" y="12" width="14" height="2" fill="#0A0A0F"/>
  <rect class="c-fixed" x="6" y="2" width="10" height="10" fill="#2A2A2E"/>
  <rect class="c-secondary" x="8" y="4" width="6" height="6" fill="var(--c-secondary, #ffffff)"/>
  <rect class="c-fixed" x="4" y="14" width="16" height="2" fill="#0A0A0F"/>
  <rect class="c-fixed" x="2" y="16" width="20" height="2" fill="#0A0A0F"/>
  <rect class="c-fixed" x="2" y="18" width="4" height="4" fill="#0A0A0F"/>
  <rect class="c-fixed" x="18" y="18" width="4" height="4" fill="#0A0A0F"/>
  <rect class="c-fixed" x="6" y="22" width="12" height="2" fill="#0A0A0F"/>
  <rect class="c-primary" x="4" y="14" width="16" height="8" fill="var(--c-primary, #1a3a8a)"/>
  <rect class="c-fixed" x="6" y="14" width="12" height="8" fill="#2A2A2E"/>
  <rect class="c-fixed" x="8" y="18" width="8" height="4" fill="#8B5E3C"/>
  <rect class="c-fixed" x="6" y="24" width="4" height="2" fill="#1A1A1A"/>
  <rect class="c-fixed" x="14" y="24" width="4" height="2" fill="#1A1A1A"/>
</svg>
