<svg xmlns="http://www.w3.org/2000/svg" viewBox="0 0 36 64">
  <rect class="c-fixed" x="10" y="2" width="12" height="2" fill="#0A0A0F"/>
  <rect class="c-fixed" x="8" y="4" width="18" height="2" fill="#0A0A0F"/>
  <rect class="c-fixed" x="6" y="6" width="20" height="2" fill="#0A0A0F"/>
  <rect class="c-fixed" x="6" y="8" width="4" height="2" fill="#0A0A0F"/>
  <rect class="c-fixed" x="24" y="8" width="4" height="2" fill="#0A0A0F"/>
  <rect class="c-fixed" x="6" y="10" width="2" height="8" fill="#0A0A0F"/>
  <rect class="c-fixed" x="26" y="10" width="2" height="8" fill="#0A0A0F"/>
  <rect class="c-fixed" x="8" y="16" width="18" height="2" fill="#0A0A0F"/>
  <rect class="c-primary" x="10" y="4" width="14" height="2" fill="var(--c-primary, #1a3a8a)"/>
  <rect class="c-primary" x="8" y="6" width="16" height="8" fill="var(--c-primary, #1a3a8a)"/>
  <rect class="c-secondary" x="12" y="14" width="8" height="2" fill="var(--c-secondary, #ffffff)"/>
  <rect class="c-fixed" x="10" y="18" width="14" height="2" fill="#0A0A0F"/>
  <rect class="c-fixed" x="8" y="20" width="14" height="2" fill="#0A0A0F"/>
  <rect class="c-fixed" x="6" y="22" width="12" height="2" fill="#0A0A0F"/>
  <rect class="c-fixed" x="4" y="24" width="10" height="2" fill="#0A0A0F"/>
  <rect class="c-fixed" x="22" y="18" width="2" height="8" fill="#0A0A0F"/>
  <rect class="c-fixed" x="20" y="24" width="2" height="8" fill="#0A0A0F"/>
  <rect class="c-fixed" x="10" y="30" width="12" height="2" fill="#0A0A0F"/>
  <rect class="c-primary" x="10" y="18" width="12" height="10" fill="var(--c-primary, #1a3a8a)"/>
  <rect class="c-secondary" x="12" y="20" width="8" height="8" fill="var(--c-secondary, #ffffff)"/>
  <rect class="c-primary" x="22" y="18" width="2" height="6" fill="var(--c-primary, #1a3a8a)"/>
  <rect class="c-fixed" x="20" y="24" width="2" height="8" fill="#FDBCB4"/>
  <rect class="c-fixed" x="14" y="22" width="4" height="4" fill="#8B5E3C"/>
  <rect class="c-fixed" x="8" y="32" width="6" height="2" fill="#0A0A0F"/>
  <rect class="c-fixed" x="18" y="32" width="6" height="2" fill="#0A0A0F"/>
  <rect class="c-fixed" x="10" y="34" width="2" height="12" fill="#0A0A0F"/>
  <rect class="c-fixed" x="20" y="34" width="2" height="12" fill="#0A0A0F"/>
  <rect class="c-secondary" x="10" y="34" width="4" height="12" fill="var(--c-secondary, #ffffff)"/>
  <rect class="c-secondary" x="20" y="34" width="4" height="12" fill="var(--c-secondary, #ffffff)"/>
  <rect class="c-primary" x="10" y="34" width="2" height="4" fill="var(--c-primary, #1a3a8a)"/>
  <rect class="c-primary" x="22" y="34" width="2" height="4" fill="var(--c-primary, #1a3a8a)"/>
  <rect class="c-fixed" x="10" y="46" width="4" height="2" fill="#0A0A0F"/>
  <rect class="c-fixed" x="20" y="46" width="4" height="2" fill="#0A0A0F"/>
  <rect class="c-fixed" x="8" y="48" width="6" height="4" fill="#1A1A1A"/>
  <rect class="c-fixed" x="20" y="48" width="6" height="4" fill="#1A1A1A"/>
</svg>
