<svg xmlns="http://www.w3.org/2000/svg" viewBox="0 0 18 32">
  <rect class="c-fixed" x="4" y="0" width="10" height="2" fill="#0A0A0F"/>
  <rect class="c-fixed" x="2" y="2" width="14" height="2" fill="#0A0A0F"/>
  <rect class="c-fixed" x="2" y="4" width="14" height="2" fill="#0A0A0F"/>
  <rect class="c-fixed" x="2" y="6" width="2" height="8" fill="#0A0A0F"/>
  <rect class="c-fixed" x="14" y="6" width="2" height="8" fill="#0A0A0F"/>
  <rect class="c-fixed" x="4" y="12" width="10" height="2" fill="#0A0A0F"/>
  <rect class="c-fixed" x="4" y="2" width="10" height="10" fill="#1C1C20"/>
  <rect class="c-secondary" x="6" y="4" width="6" height="6" fill="var(--c-secondary, #ffffff)"/>
  <rect class="c-fixed" x="4" y="14" width="10" height="2" fill="#0A0A0F"/>
  <rect class="c-fixed" x="2" y="16" width="14" height="2" fill="#0A0A0F"/>
  <rect class="c-fixed" x="4" y="18" width="10" height="2" fill="#0A0A0F"/>
  <rect class="c-fixed" x="4" y="20" width="2" height="8" fill="#0A0A0F"/>
  <rect class="c-fixed" x="12" y="20" width="2" height="8" fill="#0A0A0F"/>
  <rect class="c-fixed" x="6" y="26" width="4" height="2" fill="#0A0A0F"/>
  <rect class="c-fixed" x="10" y="26" width="4" height="2" fill="#0A0A0F"/>
  <rect class="c-fixed" x="4" y="14" width="10" height="12" fill="#1C1C20"/>
  <rect class="c-fixed" x="4" y="28" width="6" height="2" fill="#1A1A1A"/>
  <rect class="c-fixed" x="10" y="28" width="6" height="2" fill="#1A1A1A"/>
</svg>
